<svg width="100" height="38" viewBox="0 0 100 38" fill="none" xmlns="http://www.w3.org/2000/svg">
<path d="M92.4476 30.8266H91.6066V30.2971H93.9662V30.8266H93.1174V35.1254H92.4476V30.8266Z" fill="white"/>
<path d="M89.9391 35.1721C89.7107 35.1669 89.503 35.1487 89.3161 35.1176C89.1292 35.0864 88.9787 35.0267 88.8644 34.9385C88.7554 34.845 88.7009 34.7152 88.7009 34.5491V33.49L89.3706 33.4121V34.2765C89.3706 34.3907 89.407 34.479 89.4797 34.5413C89.5575 34.6036 89.6977 34.6347 89.9002 34.6347C90.0352 34.6347 90.139 34.6192 90.2117 34.588C90.2844 34.5569 90.3337 34.5101 90.3597 34.4478C90.3856 34.3804 90.3986 34.2973 90.3986 34.1986V33.599C90.3986 33.4381 90.3597 33.3031 90.2818 33.1941C90.2091 33.085 90.0871 33.0046 89.9158 32.9526L89.3473 32.7891C89.1188 32.7164 88.9527 32.6256 88.8489 32.5165C88.7502 32.4023 88.7009 32.2232 88.7009 31.9792V31.0291C88.7009 30.8059 88.7554 30.6397 88.8644 30.5307C88.9735 30.4217 89.1188 30.349 89.3005 30.3127C89.4874 30.2763 89.6977 30.2582 89.9313 30.2582C90.1494 30.2582 90.3441 30.2763 90.5154 30.3127C90.6867 30.349 90.8217 30.4139 90.9204 30.5074C91.019 30.5956 91.0683 30.7202 91.0683 30.8812V31.9403L90.3986 32.0415V31.2004C90.3986 31.0343 90.3648 30.9227 90.2974 30.8656C90.2299 30.8085 90.0975 30.7799 89.9002 30.7799C89.7081 30.7799 89.5705 30.8163 89.4874 30.8889C89.4096 30.9564 89.3706 31.0888 89.3706 31.2861V31.8157C89.3706 31.9506 89.4044 32.0675 89.4719 32.1661C89.5446 32.2647 89.6484 32.3348 89.7834 32.3764L90.3908 32.5633C90.6348 32.6359 90.8087 32.7346 90.9126 32.8592C91.0164 32.9786 91.0683 33.1577 91.0683 33.3965V34.3778C91.0683 34.601 91.019 34.7697 90.9204 34.8839C90.8269 34.993 90.6945 35.0683 90.5232 35.1098C90.3571 35.1461 90.1624 35.1669 89.9391 35.1721Z" fill="white"/>
<path d="M86.7873 35.1643C86.5641 35.1643 86.3616 35.1409 86.1799 35.0942C86.0034 35.0475 85.8632 34.9722 85.7594 34.8684C85.6555 34.7593 85.6036 34.614 85.6036 34.4323V30.2971H86.2733V34.2142C86.2733 34.2869 86.2863 34.357 86.3123 34.4245C86.3434 34.4868 86.3953 34.5387 86.468 34.5802C86.5459 34.6166 86.6523 34.6347 86.7873 34.6347C86.9275 34.6347 87.0339 34.6166 87.1066 34.5802C87.1845 34.5387 87.2364 34.4868 87.2624 34.4245C87.2883 34.357 87.3013 34.2869 87.3013 34.2142V30.2971H87.971V34.4323C87.971 34.614 87.9191 34.7593 87.8153 34.8684C87.7115 34.9722 87.5687 35.0475 87.387 35.0942C87.2105 35.1409 87.0106 35.1643 86.7873 35.1643Z" fill="white"/>
<path d="M82.3912 30.2971H84.05C84.2732 30.2971 84.4368 30.3256 84.5406 30.3828C84.6496 30.4347 84.7197 30.5177 84.7509 30.632C84.7872 30.741 84.8054 30.8786 84.8054 31.0447V32.0026C84.8054 32.1895 84.7898 32.366 84.7587 32.5321C84.7275 32.6931 84.647 32.8254 84.5172 32.9293C84.3875 33.0279 84.1746 33.0772 83.8787 33.0772H83.061V35.1254H82.3912V30.2971ZM84.4004 35.2577L83.5204 33.0305L83.9799 33.0071L84.1668 33.0617L84.198 33.1084L85.0234 35.0163L84.4004 35.2577ZM83.6684 32.5477C83.8242 32.5477 83.941 32.5062 84.0188 32.4231C84.0967 32.34 84.1357 32.1972 84.1357 31.9948V31.3406C84.1357 31.133 84.1071 30.9954 84.05 30.9279C83.9929 30.8604 83.8865 30.8266 83.7307 30.8266H83.061V32.5477H83.6684Z" fill="white"/>
<path d="M80.452 35.1799C80.0523 35.1799 79.7537 35.1046 79.5565 34.954C79.3644 34.8035 79.2683 34.5906 79.2683 34.3154V31.1693C79.2683 30.8474 79.3592 30.6138 79.5409 30.4684C79.7278 30.3178 80.0237 30.2426 80.4287 30.2426C80.8336 30.2426 81.1347 30.3153 81.332 30.4606C81.5293 30.606 81.628 30.8448 81.628 31.1771V32.2128L80.966 32.2985V31.3406C80.966 31.1641 80.9323 31.0291 80.8648 30.9357C80.7973 30.837 80.6571 30.7877 80.4442 30.7877C80.2418 30.7877 80.1068 30.8396 80.0393 30.9434C79.977 31.0421 79.9458 31.1719 79.9458 31.3328V34.1597C79.9458 34.2947 79.9822 34.4063 80.0549 34.4946C80.1275 34.5828 80.2573 34.6269 80.4442 34.6269C80.6363 34.6269 80.7713 34.5828 80.8492 34.4946C80.9271 34.4063 80.966 34.2947 80.966 34.1597V33.2563L81.628 33.1785V34.3154C81.628 34.5906 81.5267 34.8035 81.3242 34.954C81.1218 35.1046 80.831 35.1799 80.452 35.1799Z" fill="white"/>
<path d="M74.4954 35.1254L75.5078 30.2971H76.3099L77.3067 35.1254H76.6136L76.3956 34.0351L76.5124 34.1441H75.2742L75.3754 34.0351L75.1729 35.1254H74.4954ZM75.3988 33.6847L75.3365 33.6068H76.4734L76.38 33.6847L75.9595 31.1849L75.9439 31.0758H75.8582L75.8426 31.1849L75.3988 33.6847Z" fill="white"/>
<path d="M71.0892 35.1254V33.3342L70.0457 30.2971H70.6609L71.4241 32.5243L71.4318 32.6645H71.4396L71.4474 32.5243L72.1795 30.2971H72.7947L71.7434 33.3342V35.1254H71.0892Z" fill="white"/>
<path d="M68.4411 35.1643C68.1764 35.1643 67.9531 35.1383 67.7714 35.0864C67.5949 35.0293 67.4599 34.9411 67.3665 34.8216C67.2782 34.7022 67.2341 34.5465 67.2341 34.3544V31.0992C67.2341 30.7721 67.3353 30.5515 67.5378 30.4373C67.7403 30.3179 68.0388 30.2582 68.4334 30.2582C68.8124 30.2582 69.1031 30.3179 69.3056 30.4373C69.508 30.5567 69.6093 30.7799 69.6093 31.107V31.8624L68.9396 31.9013V31.2316C68.9396 31.0551 68.898 30.9409 68.815 30.8889C68.7371 30.8318 68.6125 30.8033 68.4411 30.8033C68.2698 30.8033 68.1374 30.8318 68.044 30.8889C67.9505 30.9409 67.9038 31.0525 67.9038 31.2238V34.2532C67.9038 34.357 67.9246 34.4349 67.9661 34.4868C68.0128 34.5335 68.0751 34.5673 68.153 34.588C68.2361 34.6036 68.3347 34.6114 68.4489 34.6114C68.558 34.6114 68.6488 34.6036 68.7215 34.588C68.7994 34.5673 68.8591 34.5335 68.9006 34.4868C68.9421 34.4349 68.9629 34.357 68.9629 34.2532V33.0928H68.3243L68.3711 32.5321H69.6093V34.3544C69.6093 34.5465 69.5626 34.7022 69.4691 34.8216C69.3808 34.9411 69.2485 35.0293 69.0719 35.0864C68.9006 35.1383 68.6903 35.1643 68.4411 35.1643Z" fill="white"/>
<path d="M64.2961 30.2971H66.5856V30.8266H64.9658V32.1895H66.4377L66.352 32.7112H64.9658V34.6036H66.5856V35.1254H64.2961V30.2971Z" fill="white"/>
<path d="M62.1544 30.8266H61.3134V30.2971H63.673V30.8266H62.8242V35.1254H62.1544V30.8266Z" fill="white"/>
<path d="M58.655 35.1254L59.6674 30.2971H60.4695L61.4664 35.1254H60.7733L60.5552 34.0351L60.672 34.1441H59.4338L59.535 34.0351L59.3326 35.1254H58.655ZM59.5584 33.6847L59.4961 33.6068H60.6331L60.5396 33.6847L60.1191 31.1849L60.1035 31.0758H60.0179L60.0023 31.1849L59.5584 33.6847Z" fill="white"/>
<path d="M55.6685 30.2971H57.3273C57.5505 30.2971 57.7141 30.3256 57.8179 30.3828C57.9269 30.4347 57.997 30.5177 58.0282 30.632C58.0645 30.741 58.0827 30.8786 58.0827 31.0447V32.0026C58.0827 32.1895 58.0671 32.366 58.0359 32.5321C58.0048 32.6931 57.9243 32.8254 57.7945 32.9293C57.6647 33.0279 57.4519 33.0772 57.1559 33.0772H56.3383V35.1254H55.6685V30.2971ZM57.6777 35.2577L56.7977 33.0305L57.2572 33.0071L57.4441 33.0617L57.4752 33.1084L58.3007 35.0163L57.6777 35.2577ZM56.9457 32.5477C57.1014 32.5477 57.2182 32.5062 57.2961 32.4231C57.374 32.34 57.4129 32.1972 57.4129 31.9948V31.3406C57.4129 31.133 57.3844 30.9954 57.3273 30.9279C57.2702 30.8604 57.1637 30.8266 57.008 30.8266H56.3383V32.5477H56.9457Z" fill="white"/>
<path d="M53.5269 30.8266H52.6858V30.2971H55.0455V30.8266H54.1966V35.1254H53.5269V30.8266Z" fill="white"/>
<path d="M51.0187 35.1721C50.7902 35.1669 50.5825 35.1487 50.3956 35.1176C50.2087 35.0864 50.0582 35.0267 49.944 34.9385C49.8349 34.845 49.7804 34.7152 49.7804 34.5491V33.49L50.4502 33.4121V34.2765C50.4502 34.3907 50.4865 34.479 50.5592 34.5413C50.6371 34.6036 50.7772 34.6347 50.9797 34.6347C51.1147 34.6347 51.2185 34.6192 51.2912 34.588C51.3639 34.5569 51.4132 34.5101 51.4392 34.4478C51.4651 34.3804 51.4781 34.2973 51.4781 34.1986V33.599C51.4781 33.4381 51.4392 33.3031 51.3613 33.1941C51.2886 33.085 51.1666 33.0046 50.9953 32.9526L50.4268 32.7891C50.1984 32.7164 50.0322 32.6256 49.9284 32.5165C49.8297 32.4023 49.7804 32.2232 49.7804 31.9792V31.0291C49.7804 30.8059 49.8349 30.6397 49.944 30.5307C50.053 30.4217 50.1984 30.349 50.3801 30.3127C50.567 30.2763 50.7772 30.2582 51.0109 30.2582C51.2289 30.2582 51.4236 30.2763 51.5949 30.3127C51.7663 30.349 51.9013 30.4139 51.9999 30.5074C52.0985 30.5956 52.1479 30.7202 52.1479 30.8812V31.9403L51.4781 32.0415V31.2004C51.4781 31.0343 51.4444 30.9227 51.3769 30.8656C51.3094 30.8085 51.177 30.7799 50.9797 30.7799C50.7876 30.7799 50.65 30.8163 50.567 30.8889C50.4891 30.9564 50.4502 31.0888 50.4502 31.2861V31.8157C50.4502 31.9506 50.4839 32.0675 50.5514 32.1661C50.6241 32.2647 50.7279 32.3348 50.8629 32.3764L51.4703 32.5633C51.7143 32.6359 51.8883 32.7346 51.9921 32.8592C52.0959 32.9786 52.1479 33.1577 52.1479 33.3965V34.3778C52.1479 34.601 52.0985 34.7697 51.9999 34.8839C51.9064 34.993 51.7741 35.0683 51.6027 35.1098C51.4366 35.1461 51.2419 35.1669 51.0187 35.1721Z" fill="white"/>
<path d="M87.4634 26.7221C85.3021 26.7221 83.7137 26.3315 82.6982 25.5503C81.7087 24.7431 81.2139 23.6364 81.2139 22.2303V6.84112C81.2139 5.09649 81.6957 3.84661 82.6591 3.09147C83.6226 2.33633 85.1849 1.95876 87.3462 1.95876C89.4294 1.95876 90.9917 2.33633 92.0333 3.09147C93.1009 3.84661 93.6217 5.10951 93.5957 6.88018V12.036L89.4164 12.5437V7.89571C89.4164 7.0885 89.2862 6.47657 89.0258 6.05995C88.7914 5.61728 88.2446 5.39594 87.3853 5.39594C86.552 5.39594 86.0182 5.6303 85.7839 6.099C85.5755 6.56771 85.4714 7.15359 85.4714 7.85665V21.2539C85.4714 21.8007 85.6016 22.2694 85.862 22.66C86.1224 23.0506 86.6301 23.2459 87.3853 23.2459C88.1925 23.2459 88.7263 23.0506 88.9867 22.66C89.2731 22.2694 89.4164 21.7877 89.4164 21.2148V16.8793L93.5957 16.4106V22.2303C93.5957 23.6364 93.0619 24.7431 91.9943 25.5503C90.9527 26.3315 89.4424 26.7221 87.4634 26.7221Z" fill="white"/>
<path d="M64.3904 26.4486L69.429 2.23208H74.1161L79.1157 26.4486H74.702L73.6865 21.2147L74.3895 21.8787H68.9994L69.5853 21.2147L68.6869 26.4486H64.3904ZM69.7415 18.9883L69.3509 18.5196H74.1552L73.6084 18.9883L71.9288 7.93467L71.8897 7.19256H71.5773L71.5382 7.93467L69.7415 18.9883Z" fill="white"/>
<path d="M56.2643 26.722C55.1185 26.722 54.0379 26.6439 53.0224 26.4877C52.0329 26.3314 51.2387 26.032 50.6398 25.5893C50.0669 25.1206 49.7805 24.4566 49.7805 23.5973V18.1291L53.9988 17.6604V21.8397C53.9988 22.3084 54.129 22.6859 54.3894 22.9724C54.6759 23.2328 55.2227 23.3629 56.0299 23.3629C56.5507 23.3629 56.9543 23.2978 57.2408 23.1677C57.5272 23.0114 57.7225 22.8031 57.8267 22.5427C57.9308 22.2823 57.9829 21.9568 57.9829 21.5662V18.9493C57.9829 18.2462 57.8136 17.6213 57.4751 17.0745C57.1626 16.5276 56.5768 16.124 55.7175 15.8636L53.0224 15.0434C51.8766 14.6789 51.0434 14.2102 50.5226 13.6373C50.0278 13.0644 49.7805 12.1661 49.7805 10.9422V5.86457C49.7805 4.71884 50.0669 3.87257 50.6398 3.32575C51.2126 2.77892 51.9938 2.42739 52.9833 2.27115C53.9728 2.08888 55.0534 1.99774 56.2252 1.99774C57.3449 1.99774 58.3474 2.08888 59.2328 2.27115C60.1442 2.45343 60.8602 2.77892 61.381 3.24763C61.9279 3.69029 62.2013 4.31524 62.2013 5.12245V10.5907L57.9829 11.1766V7.23163C57.9829 6.42442 57.8397 5.90363 57.5532 5.66928C57.2928 5.40888 56.7981 5.27869 56.069 5.27869C55.3138 5.27869 54.78 5.43492 54.4676 5.7474C54.1551 6.03383 53.9988 6.61971 53.9988 7.50504V9.77046C53.9988 10.3694 54.129 10.9292 54.3894 11.45C54.6759 11.9447 55.1316 12.2963 55.7565 12.5046L58.7641 13.442C59.9879 13.8326 60.8602 14.3273 61.381 14.9262C61.9279 15.4991 62.2013 16.3974 62.2013 17.6213V22.738C62.2013 23.8577 61.9409 24.704 61.4201 25.2768C60.8993 25.8497 60.1832 26.2403 59.2718 26.4486C58.3865 26.6309 57.384 26.722 56.2643 26.722Z" fill="white"/>
<path d="M39.7126 13.3941L41.2381 16.036L41.244 16.0301C42.3037 17.8668 42.3037 20.1333 41.244 21.97L33.7676 34.9153C32.6667 36.8226 30.6299 38 28.4281 38H19.3328H17.1428C15.514 38 14.1935 36.6795 14.1935 35.0507C14.1935 33.4218 15.514 32.1013 17.1428 32.1013H23.9541C28.5164 32.1013 31.8249 29.0401 31.8249 24.8192C31.8249 22.0465 30.3414 19.4504 27.9513 18.0375C26.7445 17.3252 25.361 16.9484 23.9541 16.9484H17.1664C15.2563 16.9484 13.7078 15.4 13.7078 13.4899C13.7078 11.5798 15.2563 10.0313 17.1664 10.0313H33.8875C36.2905 10.0313 38.511 11.3132 39.7126 13.3941Z" fill="white"/>
<path d="M17.5137 21.0633H22.1608C23.31 21.0633 24.4181 21.5423 25.2125 22.3727C26.3861 23.5994 26.3797 25.5547 25.1793 26.7551C24.3985 27.5359 23.3396 27.9746 22.2354 27.9746H9.35201C6.20236 27.9746 3.29192 26.2944 1.71688 23.5668L0.794739 21.9699C-0.264913 20.1332 -0.264913 17.8668 0.794739 16.03L8.27117 3.08474C9.37203 1.17738 11.4089 0 13.6106 0H24.1659H24.339C25.9959 0 27.339 1.34315 27.339 3V3.17304C27.339 4.68162 26.1161 5.90457 24.6075 5.90457H17.5137C12.9513 5.90457 9.64283 8.8539 9.64283 13.1926C9.64283 17.5312 13.175 21.0633 17.5137 21.0633Z" fill="#FA8B16"/>
</svg>
