<svg width="512" height="512" viewBox="0 0 60 60" fill="none" xmlns="http://www.w3.org/2000/svg">
    <g transform="translate(0,3)">
        <path
            d="M58.6009 22.7878L53.6736 14.2549H24.8793C22.2274 14.2549 19.5504 15.6436 19.5504 18.7556C19.5504 21.7002 21.943 24.0844 24.8793 24.0844H34.0396C36.039 24.0844 38.0049 24.6198 39.7198 25.6321C43.1163 27.6398 45.2244 31.329 45.2244 35.2692C45.2244 41.2673 40.5229 45.6174 34.0396 45.6174H20.1695C21.9179 46.1696 23.1309 47.8343 23.1727 49.7919C23.2229 52.1259 25.1219 53.9998 27.4726 53.9998H40.3974C43.5262 53.9998 46.4207 52.3266 47.985 49.6162L58.6093 31.2203C60.1151 28.6102 60.1151 25.3895 58.6093 22.7794L58.6009 22.7878Z"
            fill="white" />
        <path
            d="M39.3768 35.2693C39.3768 33.387 38.3729 31.6303 36.75 30.6682C35.9385 30.183 35.0016 29.932 34.0479 29.932H24.8876C18.7222 29.932 13.7028 24.9127 13.7028 18.7473C13.7028 12.5818 18.4043 8.39068 24.8876 8.39068H41.1001C39.7616 7.61268 38.8498 6.1738 38.8498 4.50905C38.8498 2.0161 36.8336 0 34.3407 0H19.3412C16.2125 0 13.318 1.67312 11.7536 4.38356L1.12935 22.7795C-0.376451 25.3895 -0.376451 28.6103 1.12935 31.2203L6.05668 39.7532H34.0479C36.6998 39.7532 39.3768 38.3646 39.3768 35.2609V35.2693Z"
            fill="#FA8B16" />
    </g>
</svg>